{"title":"City of Joy DVDrip x264 RB58.mp4","uid":9791128,"size":925725220,"categoryP":"video","categoryS":"movies_dvdr","magnet":"?xt=urn:btih:91623a09d1712a16166d9a52956cbf8138127605&amp;dn=City+of+Joy+DVDrip+x264+RB58.mp4&amp;tr=udp%3A%2F%2Ftracker.openbittorrent.com%3A80&amp;tr=udp%3A%2F%2Fopen.demonii.com%3A1337&amp;tr=udp%3A%2F%2Ftracker.coppersurfer.tk%3A6969&amp;tr=udp%3A%2F%2Fexodus.desync.com%3A6969","seeders":9,"leechers":0,"uploader":"RedBaron58","files":1,"time":1395248641,"description":"City of Joy (1992) with  Patrick Swayze, Pauline Collins  x264 format\n &lt;a href=&quot;\nhttp://www.imdb.com/title/tt0103976/&quot; rel=&quot;nofollow&quot; target=&quot;_NEW&quot;&gt;\nhttp://www.imdb.com/title/tt0103976/&lt;/a&gt;\n\n\nPlease be patient My upload speed is limited, but I am online most the time and during the night.\nThank you for your kind comments and thumbs ups on my other torrents, your feedback is welcome.\n\nFilm in English.\n\nAbout the Film:\n\nHazari Pal lives in a small village in Bihar, India, with his dad, mom, wife, Kamla, daughter, \nAmrita, and two sons, Shambhu and Manooj. \nAs the Pal are unable to repay the loan they had taken years ago from a moneylender, their land \nand property are auctioned, and they are rendered homeless. \nHazari and his family re-locate to Calcutta with hopes of starting life anew, save some money \nand go back to Bihar.\nMeanwhile, on the other end of Calcutta, Max Lowe (Patrick Swayze), a doctor disillusioned by \nan easy job in a Houston hospital, has arrived in search of spiritual enlightenment after the \nloss of a patient there. However, he encounters misfortune as soon as he arrives.\n\nI hope you enjoy.\n\n\nTechnical:\n\nGeneral\nComplete name                            : F:City of Joy DVDrip x264 RB58.mp4\nFormat                                   : MPEG-4\nFormat profile                           : Base Media / Version 2\nCodec ID                                 : mp42\nFile size                                : 883 MiB\nDuration                                 : 2h 8mn\nOverall bit rate mode                    : Variable\nOverall bit rate                         : 958 Kbps\nEncoded date                             : UTC 2014-03-18 15:31:54\nTagged date                              : UTC 2014-03-18 16:36:45\nWriting application                      : HandBrake 0.9.8 2012071700\n\nVideo\nID                                       : 1\nFormat                                   : AVC\nFormat/Info                              : Advanced Video Codec\nFormat profile                           : &lt;a class=&quot;__cf_email__&quot; href=&quot;/cdn-cgi/l/email-protection&quot; data-cfemail=&quot;470a262e29070b746977&quot;&gt;[email&amp;#160;protected]&lt;/a&gt;&lt;script cf-hash='f9e31' type=&quot;text/javascript&quot;&gt;\n/* &lt;![CDATA[ */!function(){try{var t=&quot;currentScript&quot;in document?document.currentScript:function(){for(var t=document.getElementsByTagName(&quot;script&quot;),e=t.length;e--;)if(t[e].getAttribute(&quot;cf-hash&quot;))return t[e]}();if(t&amp;&amp;t.previousSibling){var e,r,n,i,c=t.previousSibling,a=c.getAttribute(&quot;data-cfemail&quot;);if(a){for(e=&quot;&quot;,r=parseInt(a.substr(0,2),16),n=2;a.length-n;n+=2)i=parseInt(a.substr(n,2),16)^r,e+=String.fromCharCode(i);e=document.createTextNode(e),c.parentNode.replaceChild(e,c)}}}catch(u){}}();/* ]]&gt; */&lt;/script&gt;\nFormat settings, CABAC                   : Yes\nFormat settings, ReFrames                : 4 frames\nCodec ID                                 : avc1\nCodec ID/Info                            : Advanced Video Coding\nDuration                                 : 2h 8mn\nBit rate mode                            : Variable\nBit rate                                 : 800 Kbps\nWidth                                    : 706 pixels\nHeight                                   : 480 pixels\nDisplay aspect ratio                     : 4:3\nOriginal display aspect ratio            : 4:3\nFrame rate mode                          : Variable\nFrame rate                               : 29.970 fps\nMinimum frame rate                       : 9.990 fps\nMaximum frame rate                       : 29.970 fps\nColor space                              : YUV\nChroma subsampling                       : 4:2:0\nBit depth                                : 8 bits\nScan type                                : Progressive\nBits/(Pixel*Frame)                       : 0.079\nStream size                              : 737 MiB (83%)\nWriting library                          : x264 core 120\nEncoding settings                        : cabac=1 / ref=1 / deblock=1:0:0\nEncoded date                             : UTC 2014-03-18 15:31:54\nTagged date                              : UTC 2014-03-18 16:36:45\nColor primaries                          : BT.601 NTSC\nTransfer characteristics                 : BT.709\nMatrix coefficients                      : BT.601\n\nAudio\nID                                       : 2\nFormat                                   : MPEG Audio\nFormat version                           : Version 1\nFormat profile                           : Layer 3\nCodec ID                                 : 69\nDuration                                 : 2h 8mn\nBit rate mode                            : Variable\nBit rate                                 : 154 Kbps\nMaximum bit rate                         : 188 Kbps\nChannel(s)                               : 2 channels\nSampling rate                            : 48.0 KHz\nCompression mode                         : Lossy\nDelay relative to video                  : 133ms\nStream size                              : 142 MiB (16%)\nLanguage                                 : English\nEncoded date                             : UTC 2014-03-18 15:31:54\nTagged date                              : UTC 2014-03-18 16:36:44","torrent":{"xt":"urn:btih:91623a09d1712a16166d9a52956cbf8138127605","amp;dn":"City+of+Joy+DVDrip+x264+RB58.mp4","amp;tr":["udp%3A%2F%2Ftracker.openbittorrent.com%3A80","udp%3A%2F%2Fopen.demonii.com%3A1337","udp%3A%2F%2Ftracker.coppersurfer.tk%3A6969","udp%3A%2F%2Fexodus.desync.com%3A6969"],"infoHash":"91623a09d1712a16166d9a52956cbf8138127605","infoHashBuffer":{"type":"Buffer","data":[145,98,58,9,209,113,42,22,22,109,154,82,149,108,191,129,56,18,118,5]},"announce":[],"urlList":[]}}